<svg xmlns="http://www.w3.org/2000/svg" width="48.812" height="48.94"><path d="M13.434 3.05a6.7 6.7 0 00-11.246 0 12.239 12.239 0 000 13.95 7.893 7.893 0 002.886 2.43L3.422 44.26a4.4 4.4 0 108.777 0l-1.651-24.83A7.893 7.893 0 0013.434 17a12.239 12.239 0 000-13.95zM9.382 46.02a2.152 2.152 0 01-3.719-1.61l1.621-24.38a4.635 4.635 0 001.053 0l1.621 24.38a2.123 2.123 0 01-.576 1.61zM7.811 17.81a3.858 3.858 0 01-1.173-.18l-.1-.03c-2.455-.8-4.29-3.89-4.29-7.58 0-4.29 2.494-7.78 5.559-7.78s5.559 3.49 5.559 7.78-2.49 7.79-5.555 7.79zm41 11.43V1.26h-.01a1.094 1.094 0 00-.158-.73 1.127 1.127 0 00-1.545-.37 15.333 15.333 0 00-7.317 13.12v14.71a2.386 2.386 0 002.311 2.38v15.2a3.36 3.36 0 106.719 0V29.24zm-6.646-1.11a.143.143 0 01-.138-.14V13.28a13.076 13.076 0 014.538-9.95v24.8h-4.4zm4.4 17.44a1.114 1.114 0 01-2.227 0v-15.2h2.227v15.2zM31.754-.01a1.129 1.129 0 00-1.123 1.13v12.75h-2.865V1.12a1.123 1.123 0 10-2.245 0v12.75H22.66V1.12a1.123 1.123 0 10-2.246 0v16.25a3.324 3.324 0 003.319 3.32h.2l-1.575 23.68a4.294 4.294 0 108.571 0l-1.576-23.68h.2a3.324 3.324 0 003.319-3.32V1.12A1.129 1.129 0 0031.75-.01zm-3.61 46.06a2.049 2.049 0 01-3.542-1.53l1.585-23.83h.92l1.585 23.83a2.019 2.019 0 01-.552 1.53zm2.487-28.68a1.073 1.073 0 01-1.074 1.07h-5.82a1.072 1.072 0 01-1.073-1.07v-1.25h7.967v1.25z" fill="#fca313" fill-rule="evenodd"/></svg>