<svg xmlns="http://www.w3.org/2000/svg" width="48.812" height="48.94" viewBox="0 0 48.812 48.94">
  <defs>
    <style>
      .cls-1 {
        fill: #fca313;
        fill-rule: evenodd;
      }
    </style>
  </defs>
  <path class="cls-1" d="M130.528,1723.08a6.7,6.7,0,0,0-11.246,0,12.239,12.239,0,0,0,0,13.95,7.893,7.893,0,0,0,2.886,2.43l-1.652,24.83a4.4,4.4,0,1,0,8.777,0l-1.651-24.83a7.893,7.893,0,0,0,2.886-2.43A12.239,12.239,0,0,0,130.528,1723.08Zm-4.052,42.97a2.152,2.152,0,0,1-3.719-1.61l1.621-24.38a4.635,4.635,0,0,0,1.053,0l1.621,24.38A2.123,2.123,0,0,1,126.476,1766.05Zm-1.571-28.21a3.858,3.858,0,0,1-1.173-.18l-0.1-.03c-2.455-.8-4.29-3.89-4.29-7.58,0-4.29,2.494-7.78,5.559-7.78s5.559,3.49,5.559,7.78S127.97,1737.84,124.905,1737.84Zm41,11.43v-27.98h-0.01a1.094,1.094,0,0,0-.158-0.73,1.127,1.127,0,0,0-1.545-.37,15.333,15.333,0,0,0-7.317,13.12h0v14.71a2.386,2.386,0,0,0,2.311,2.38v15.2a3.36,3.36,0,1,0,6.719,0v-16.33Zm-6.646-1.11a0.143,0.143,0,0,1-.138-0.14v-14.71a13.076,13.076,0,0,1,4.538-9.95v24.8h-4.4Zm4.4,17.44a1.114,1.114,0,0,1-2.227,0v-15.2h2.227v15.2h0Zm-14.811-45.58a1.129,1.129,0,0,0-1.123,1.13v12.75H144.86v-12.75a1.123,1.123,0,1,0-2.245,0v12.75h-2.861v-12.75a1.123,1.123,0,1,0-2.246,0v16.25a3.324,3.324,0,0,0,3.319,3.32h0.2l-1.575,23.68a4.294,4.294,0,1,0,8.571,0l-1.576-23.68h0.2a3.324,3.324,0,0,0,3.319-3.32v-16.25A1.129,1.129,0,0,0,148.844,1720.02Zm-3.61,46.06a2.049,2.049,0,0,1-3.542-1.53l1.585-23.83h0.92l1.585,23.83A2.019,2.019,0,0,1,145.234,1766.08Zm2.487-28.68a1.073,1.073,0,0,1-1.074,1.07h-5.82a1.072,1.072,0,0,1-1.073-1.07v-1.25h7.967v1.25Z" transform="translate(-117.094 -1720.03)"/>
</svg>
