<svg xmlns="http://www.w3.org/2000/svg" width="18" height="24.5" viewBox="0 0 18 24.5">
  <defs>
    <style>
      .cls-1 {
        fill: #fdb813;
        fill-rule: evenodd;
      }
    </style>
  </defs>
  <path id="Forma_1" data-name="Forma 1" class="cls-1" d="M427,309.751a9.02,9.02,0,0,0-9,9.019,8.819,8.819,0,0,0,.787,3.682,56.916,56.916,0,0,0,7.833,11.623,0.5,0.5,0,0,0,.76,0,56.928,56.928,0,0,0,7.833-11.623A8.819,8.819,0,0,0,436,318.77,9.021,9.021,0,0,0,427,309.751Zm0,13.7a4.685,4.685,0,1,1,4.675-4.685A4.685,4.685,0,0,1,427,323.455Z" transform="translate(-418 -309.75)"/>
</svg>
